PathFileType	4	(X/Y/Z)	Patient4_TMGait_0pt3_03_right_11.trc.trc
DataRate	CameraRate	NumFrames	NumMarkers	Units	OrigDataRate	OrigDataStartFrame	OrigNumFrames
51.851851851852	51.851851851852	4	33	mm	51.851851851852	36	       141
Frame#	Time	Sacral			L.Shoulder			Chest			R.Shoulder			Neck			R.ASIS			L.ASIS			R.Thigh.Superior			R.Thigh.Lateral			R.Thigh.Inferior			R.Patella			L.Thigh.Superior			L.Thigh.Lateral			L.Thigh.Inferior			L.Patella			L.Shank.Superior			L.Shank.Lateral			L.Shank.Inferior			R.Shank.Superior			R.Shank.Lateral			R.Shank.Inferior			R.Heel			R.Midfoot.Superior			R.Midfoot.Lateral			R.Toe			L.Heel			L.Midfoot.Lateral			L.Midfoot.Superior			L.Toe			L.Elbow			L.Wrist			R.Elbow			R.Wrist			
		X1	Y1	Z1	X2	Y2	Z2	X3	Y3	Z3	X4	Y4	Z4	X5	Y5	Z5	X6	Y6	Z6	X7	Y7	Z7	X8	Y8	Z8	X9	Y9	Z9	X10	Y10	Z10	X11	Y11	Z11	X12	Y12	Z12	X13	Y13	Z13	X14	Y14	Z14	X15	Y15	Z15	X16	Y16	Z16	X17	Y17	Z17	X18	Y18	Z18	X19	Y19	Z19	X20	Y20	Z20	X21	Y21	Z21	X22	Y22	Z22	X23	Y23	Z23	X24	Y24	Z24	X25	Y25	Z25	X26	Y26	Z26	X27	Y27	Z27	X28	Y28	Z28	X29	Y29	Z29	X30	Y30	Z30	X31	Y31	Z31	X32	Y32	Z32	X33	Y33	Z33	

36	21.485000000000	819.849851684315	1013.276968472400	485.381194640295	1061.483539168760	1434.576733605094	355.148366852997	1122.205842893879	1355.672767251548	530.967205951034	1009.029070424582	1432.887734270787	685.465536148328	1010.564159459678	1492.154174204244	509.608636368041	1026.112926889926	935.269698016205	637.738692483120	1054.723637156257	958.364834063240	365.476765012028	1083.424965217289	747.145991657203	602.586034413573	1009.050892657462	631.857539143116	657.395987550120	1094.176362588812	586.588305491375	579.664880157801	1102.566242366069	499.765719739240	586.634875184218	1058.212051984613	728.355884831070	386.244410655037	953.719390183391	628.659210023597	313.214257801048	1017.794544070157	535.450770141644	377.150023688310	1004.018404427623	461.037385993817	379.122804925929	951.702091134610	402.148453395745	368.180075172196	830.146825834194	325.184731139672	311.178769120705	842.474873387615	198.742664597625	373.471462462133	1078.162892354639	409.234510133283	594.337801711413	1010.779804485862	302.870983362461	656.810910299177	1058.726768446820	209.304784264659	594.824759488950	931.001426775529	43.121889296979	565.261150347165	1102.258799413020	97.769235296635	602.025707590052	1014.241364191970	36.976251793463	640.230674429113	1222.068172597994	47.823088356277	628.999556843500	674.441692646401	75.421794969129	403.560201715676	749.196085819691	55.778054377218	327.456081379582	841.673865389889	102.888463132540	355.324936435454	957.541873541482	37.166054006668	332.239861112159	1146.161328738137	1111.268762711666	207.294883463296	1401.831150393900	1084.680845058472	236.462273292819	865.126220308088	1108.389627859673	768.252504074406	887.451893489766	848.364573608923	789.529276963876	
37	21.504285714286	820.821114831443	1014.205241122230	491.362717594181	1060.745567029102	1436.019167215590	359.197954515110	1123.424887347471	1356.745108491301	534.197944280430	1011.873244401101	1433.484808519660	690.068489110051	1011.225967830372	1493.178505989970	514.164092830364	1028.636081652159	936.071120612572	641.341544695144	1054.474390829718	959.552551104775	368.928879929545	1083.646122211526	746.394364862833	606.114512492459	1007.871095082800	631.877391148597	660.502328943271	1092.175731242506	585.908001751859	582.355870969803	1099.686124695372	499.139665408328	588.703486190994	1060.430364261385	729.931026884413	389.199593880861	957.371009664717	629.220887946681	316.168623515748	1023.553061966584	536.240883404976	379.235033463821	1010.250304777014	460.742882735899	380.300656088976	955.982352179154	402.693014912252	369.565491397587	832.255366563806	329.107778923406	312.839400534660	842.404893797122	201.715663158138	373.539317246441	1074.660235690826	408.913908286912	596.037042603129	1006.803081247289	302.665819470251	658.037625782549	1053.940600964954	209.094620606076	595.468097323198	925.499844758442	43.147840734834	565.366253917926	1096.738724045992	97.717678185714	602.201374869298	1008.742924279705	37.039323270762	640.419549313812	1216.591541169390	47.559565049866	629.125966818796	671.378384941386	83.237922934874	403.386709164619	745.234021714196	60.530503102722	327.375084741662	839.368631074793	104.413922118693	354.772741559606	952.162002767399	36.639983810130	332.220279516087	1140.112936299229	1110.825945089982	211.107860806974	1394.828887956749	1072.427960619810	239.497324473966	870.008122191827	1108.856849373669	776.022980457294	895.696486794738	849.303533804885	798.722436515091	
38	21.523571428571	821.518147700305	1014.970054689727	497.279290106896	1059.812408480880	1437.178621295799	362.902289200795	1124.447702200060	1357.621548017215	537.099473831780	1014.582740460246	1433.972218194443	694.298802627442	1011.795828583381	1494.029021744385	518.346832213029	1030.887463037142	936.762974601014	644.892118639818	1053.949935052041	960.490277881659	372.348398946802	1083.683674510664	745.608842013344	609.526556815062	1006.652882170720	631.812357031406	663.518758158732	1090.100130519161	585.213976856021	584.909682243915	1096.780934535733	498.468864357482	590.691709736201	1063.015703178248	731.594492138980	392.299845783688	961.939504502426	629.605029331734	319.166398699905	1030.410124710673	537.078726907676	381.583463883053	1017.669823300977	460.401743863504	381.689159040851	961.400159773249	403.161278598878	371.089185893791	835.516037837993	333.261259511599	314.552048151194	843.082442697856	204.983685648002	373.625409669375	1071.127217854191	408.549282515288	597.661962756930	1002.805814762825	302.430435072272	659.177010765625	1049.140051533455	208.871606295115	596.070103869716	919.965982377921	43.202858324755	565.439291438798	1091.167755484903	97.671281493638	602.363572909680	1003.192349403404	37.102774277527	640.560212061904	1211.053347577459	47.274822532440	629.273946363562	668.951287813980	92.045727564360	403.184611996260	741.692292601196	66.079036780411	327.259158942675	837.499408263639	106.247975151718	354.228570123073	946.787011208792	35.976423009042	332.197604680013	1133.631654977432	1110.025611198606	214.824076921820	1386.619733621528	1058.620683226935	242.237709548352	875.104872248218	1109.174157121431	783.720069382416	904.537841427438	850.160770950507	807.753283352661	
39	21.542857142857	821.941744987569	1015.525204375554	503.117857801957	1058.678101892226	1438.001250799129	366.249847254492	1125.252068215220	1358.265430741524	539.672524812983	1017.105225675677	1434.323911884416	698.134140446250	1012.253120117131	1494.664907614031	522.137456081185	1032.868543627760	937.305652273969	648.384087786204	1053.151840641555	961.152309007515	375.737799973548	1083.662135601428	744.836359830048	612.758706372609	1005.584619085666	631.650799781746	666.413486968538	1088.164422152718	584.522041592887	587.295639430305	1094.104642765244	497.726966406021	592.583224973718	1065.926146223117	733.355928409008	395.562801257015	967.393561331803	629.849239825490	322.197375190746	1038.266314694248	538.020756601572	384.241137624808	1026.187927173285	460.084564481215	383.337698587753	967.908000732852	403.595913257039	372.777153334758	839.914895487362	337.671863783593	316.329302137030	844.508632531453	208.603896117219	373.774422251923	1067.759779395411	408.108403806692	599.187231860031	998.938850015487	302.164356527662	660.230377908353	1044.409240931457	208.606923383427	596.608518141545	914.382217687305	43.286397162380	565.480867251864	1085.547662146113	97.613205210137	602.493572641622	997.575431797714	37.165592478998	640.646560201170	1205.450807430156	46.942119325291	629.428112358435	667.250336184627	101.898496437897	402.994220684134	738.647502642637	72.530363598333	327.140802358532	836.083622768646	108.498673865603	353.741563645897	941.431740544950	35.172154055105	332.178316578711	1126.741568461552	1108.804420663210	218.491675509059	1376.994527364307	1043.255537228441	244.666030847298	880.451816389900	1109.265957040254	791.289713260663	914.024944587126	850.883296028497	816.590954159248	
